HIERARCHY
ROOT joint_Root
{
	OFFSET 0.0 0.0 0.0
	CHANNELS 6 Xposition Yposition Zposition Zrotation Xrotation Yrotation 
	JOINT Hips
	{
		OFFSET -17.1583 93.1646 452.98
		CHANNELS 6 Xposition Yposition Zposition Zrotation Xrotation Yrotation 
		JOINT Spine
		{
			OFFSET 15.7357 0.0 0.0
			CHANNELS 6 Xposition Yposition Zposition Zrotation Xrotation Yrotation 
			JOINT Chest
			{
				OFFSET 8.98455 -0.406207 0.0
				CHANNELS 6 Xposition Yposition Zposition Zrotation Xrotation Yrotation 
				JOINT Neck
				{
					OFFSET 16.3773 0.0 0.0
					CHANNELS 6 Xposition Yposition Zposition Zrotation Xrotation Yrotation 
					JOINT Head
					{
						OFFSET 6.45672 0.0 0.0
						CHANNELS 6 Xposition Yposition Zposition Zrotation Xrotation Yrotation 
						End Site
						{
							OFFSET 0.0 0.0 0.0
						}
					}
				}
				JOINT Shoulder_L
				{
					OFFSET 12.9942 -0.242716 4.98039
					CHANNELS 6 Xposition Yposition Zposition Zrotation Xrotation Yrotation 
					JOINT UpperArm_L
					{
						OFFSET 5.34809 0.0 0.0
						CHANNELS 6 Xposition Yposition Zposition Zrotation Xrotation Yrotation 
						JOINT LowerArm_L
						{
							OFFSET 24.3286 1.87007e-05 0.0
							CHANNELS 6 Xposition Yposition Zposition Zrotation Xrotation Yrotation 
							JOINT Hand_L
							{
								OFFSET 22.2916 0.0 0.0
								CHANNELS 6 Xposition Yposition Zposition Zrotation Xrotation Yrotation 
								End Site
								{
									OFFSET 0.0 0.0 0.0
								}
							}
						}
					}
				}
				JOINT Shoulder_R
				{
					OFFSET 12.9945 -0.242716 -4.98039
					CHANNELS 6 Xposition Yposition Zposition Zrotation Xrotation Yrotation 
					JOINT UpperArm_R
					{
						OFFSET -5.34813 0.0 0.0
						CHANNELS 6 Xposition Yposition Zposition Zrotation Xrotation Yrotation 
						JOINT LowerArm_R
						{
							OFFSET -24.3289 0.000322201 0.0
							CHANNELS 6 Xposition Yposition Zposition Zrotation Xrotation Yrotation 
							JOINT Hand_R
							{
								OFFSET -22.2915 -0.000108084 0.0
								CHANNELS 6 Xposition Yposition Zposition Zrotation Xrotation Yrotation 
								End Site
								{
									OFFSET 0.0 0.0 0.0
								}
							}
						}
					}
				}
			}
		}
		JOINT UpperLeg_L
		{
			OFFSET -2.19248 -6.46944 0.0
			CHANNELS 6 Xposition Yposition Zposition Zrotation Xrotation Yrotation 
			JOINT LowerLeg_L
			{
				OFFSET 39.0811 0.0 -1.23785e-05
				CHANNELS 6 Xposition Yposition Zposition Zrotation Xrotation Yrotation 
				JOINT Foot_L
				{
					OFFSET 40.9854 0.0 -1.26872e-05
					CHANNELS 6 Xposition Yposition Zposition Zrotation Xrotation Yrotation 
					JOINT Toes_L
					{
						OFFSET 11.7543 0.0 0.0
						CHANNELS 6 Xposition Yposition Zposition Zrotation Xrotation Yrotation 
						End Site
						{
							OFFSET 0.0 0.0 0.0
						}
					}
				}
			}
		}
		JOINT UpperLeg_R
		{
			OFFSET -2.19251 6.46944 0.0
			CHANNELS 6 Xposition Yposition Zposition Zrotation Xrotation Yrotation 
			JOINT LowerLeg_R
			{
				OFFSET -39.0811 -0.00228153 -0.0401928
				CHANNELS 6 Xposition Yposition Zposition Zrotation Xrotation Yrotation 
				JOINT Foot_R
				{
					OFFSET -40.9854 0.0 0.0
					CHANNELS 6 Xposition Yposition Zposition Zrotation Xrotation Yrotation 
					JOINT Toes_R
					{
						OFFSET -11.7543 0.0 0.0
						CHANNELS 6 Xposition Yposition Zposition Zrotation Xrotation Yrotation 
						End Site
						{
							OFFSET 0.0 0.0 0.0
						}
					}
				}
			}
		}
	}
}
MOTION
Frames:	5
Frame Time:	0.0333333
0.000000 0.000000 0.000000 0.000000 0.000000 -0.000000 -3.058740 93.561500 2.231390 87.495000 0.868306 -5.603220 15.735700 0.000005 -0.000001 -53.761600 89.035500 55.502000 8.984550 -0.406207 -0.000000 -9.299830 -1.394900 3.377460 16.377300 -0.000001 -0.000001 -4.865850 2.770820 1.304330 6.456720 -0.000001 -0.000000 -14.854900 3.568230 3.161020 12.994200 -0.242716 4.980390 -88.067200 -3.645680 -62.044300 5.348090 -0.000007 -0.000001 -81.638500 -67.531200 -123.138000 24.328600 0.000019 0.000005 0.000047 -15.939200 0.000001 22.291600 -0.000001 0.000005 57.021400 4.281950 20.069400 12.994500 -0.242716 -4.980390 94.362000 -6.951310 -57.778200 -5.348130 -0.000001 -0.000004 -81.660500 -63.848200 -127.992000 -24.328900 0.000322 -0.000009 -0.001088 -30.794400 -0.000178 -22.291500 -0.000108 -0.000004 46.584200 5.342260 -1.146770 -2.192480 -6.469440 -0.000000 -171.545000 -13.573700 -1.530860 39.081100 -0.000007 -0.000012 -0.016091 0.146223 6.279480 40.985400 -0.000006 -0.000013 -8.250760 17.923500 -63.489200 11.754300 -0.000000 0.000003 -0.002118 0.197812 -8.551220 -2.192510 6.469440 -0.000001 178.858000 9.594340 -179.884000 -39.081100 -0.002282 -0.040193 0.005677 -0.037064 3.593870 -40.985400 0.000008 0.000006 -9.208250 11.131700 -62.328600 -11.754300 -0.000006 -0.000006 -0.011102 0.279363 -5.221290
0.000000 0.000000 0.000000 0.000000 0.000000 -0.000000 -3.036310 93.567900 2.190700 87.522400 0.997913 -5.630160 15.735700 0.000005 -0.000001 -53.224600 89.055800 54.964900 8.984550 -0.406207 -0.000000 -9.256630 -1.384480 3.378490 16.377300 -0.000001 -0.000001 -4.765960 2.743540 1.327880 6.456720 -0.000001 -0.000000 -14.863600 3.502560 3.233140 12.994200 -0.242716 4.980390 -88.068300 -3.652320 -62.100100 5.348090 -0.000007 -0.000001 -80.779900 -67.566400 -122.282000 24.328600 0.000019 0.000005 0.000044 -15.585000 0.000001 22.291600 -0.000001 0.000005 56.422300 4.282660 20.058400 12.994500 -0.242716 -4.980390 94.403500 -6.998670 -57.707000 -5.348130 -0.000001 -0.000004 -81.252200 -63.702200 -127.646000 -24.328900 0.000322 -0.000009 -0.001091 -30.575300 -0.000176 -22.291500 -0.000108 -0.000004 46.479800 5.337260 -0.998628 -2.192480 -6.469440 -0.000000 -171.580000 -13.385400 -1.629530 39.081100 -0.000007 -0.000012 -0.016413 0.148873 6.291220 40.985400 -0.000006 -0.000013 -8.365380 17.922800 -63.410000 11.754300 -0.000000 0.000003 -0.001961 0.195854 -8.630870 -2.192510 6.469440 -0.000001 178.837000 9.871400 -179.904000 -39.081100 -0.002282 -0.040193 0.005677 -0.037445 3.557110 -40.985400 0.000008 0.000006 -9.180650 11.229600 -62.333300 -11.754300 -0.000006 -0.000006 -0.011527 0.282380 -5.097750
0.000000 0.000000 0.000000 0.000000 0.000000 -0.000000 -3.005680 93.565300 2.171430 87.534800 1.094450 -5.600220 15.735700 0.000005 -0.000001 -52.459800 89.105100 54.195200 8.984550 -0.406207 -0.000000 -9.163850 -1.342630 3.373020 16.377300 -0.000001 -0.000001 -4.700280 2.665750 1.432230 6.456720 -0.000001 -0.000000 -14.811900 3.481850 3.236640 12.994200 -0.242716 4.980390 -88.057700 -3.675730 -62.121500 5.348090 -0.000007 -0.000001 -79.941900 -67.534100 -121.432000 24.328600 0.000019 0.000005 0.000075 -15.091300 0.000001 22.291600 -0.000001 0.000005 55.490500 4.293780 19.887500 12.994500 -0.242716 -4.980390 94.414500 -6.997790 -57.638500 -5.348130 -0.000001 -0.000004 -80.831000 -63.578400 -127.258000 -24.328900 0.000322 -0.000009 -0.001081 -30.577500 -0.000176 -22.291500 -0.000108 -0.000004 46.445900 5.338680 -1.040600 -2.192480 -6.469440 -0.000000 -171.619000 -13.390700 -1.698460 39.081100 -0.000007 -0.000012 -0.016632 0.147196 6.446170 40.985400 -0.000006 -0.000013 -8.235780 17.927600 -63.503600 11.754300 -0.000000 0.000003 -0.001592 0.191115 -8.823570 -2.192510 6.469440 -0.000001 178.813000 10.036200 -179.893000 -39.081100 -0.002282 -0.040193 0.005680 -0.037194 3.585980 -40.985400 0.000008 0.000006 -9.190840 11.290600 -62.302400 -11.754300 -0.000006 -0.000006 -0.011247 0.280399 -5.178860
0.000000 0.000000 0.000000 0.000000 0.000000 -0.000000 -2.983740 93.558800 2.155040 87.533000 1.196970 -5.544030 15.735700 0.000005 -0.000001 -51.075800 89.152500 52.810400 8.984550 -0.406207 -0.000000 -9.063720 -1.315600 3.374510 16.377300 -0.000001 -0.000001 -4.624660 2.625790 1.467320 6.456720 -0.000001 -0.000000 -14.733900 3.441370 3.302190 12.994200 -0.242716 4.980390 -88.055600 -3.677230 -62.105700 5.348090 -0.000007 -0.000001 -79.053700 -67.366100 -120.574000 24.328600 0.000019 0.000005 0.000044 -14.469300 0.000001 22.291600 -0.000001 0.000005 55.230400 4.302370 19.754900 12.994500 -0.242716 -4.980390 94.439100 -7.022500 -57.585100 -5.348130 -0.000001 -0.000004 -80.898000 -63.298400 -127.207000 -24.328900 0.000322 -0.000009 -0.001089 -30.253200 -0.000174 -22.291500 -0.000108 -0.000004 46.288600 5.334780 -0.925664 -2.192480 -6.469440 -0.000000 -171.637000 -13.202500 -1.831950 39.081100 -0.000007 -0.000012 -0.017257 0.145697 6.754680 40.985400 -0.000006 -0.000013 -7.946120 17.919700 -63.802900 11.754300 -0.000000 0.000003 -0.001901 0.195098 -8.661590 -2.192510 6.469440 -0.000001 178.791000 9.977950 -179.887000 -39.081100 -0.002282 -0.040193 0.005714 -0.036682 3.689050 -40.985400 0.000008 0.000006 -9.227810 11.190900 -62.351100 -11.754300 -0.000006 -0.000006 -0.010940 0.278197 -5.269000
0.000000 0.000000 0.000000 0.000000 0.000000 -0.000000 -2.952760 93.548100 2.166040 87.540300 1.256670 -5.454290 15.735700 0.000005 -0.000001 -48.631500 89.194800 50.371500 8.984550 -0.406207 -0.000000 -8.953530 -1.314180 3.386610 16.377300 -0.000001 -0.000001 -4.518730 2.644590 1.475390 6.456720 -0.000001 -0.000000 -14.685800 3.422800 3.305840 12.994200 -0.242716 4.980390 -88.078600 -3.630730 -62.087000 5.348090 -0.000007 -0.000001 -78.085200 -67.273300 -119.704000 24.328600 0.000019 0.000005 0.000062 -14.288600 0.000001 22.291600 -0.000001 0.000005 55.007700 4.304560 19.721500 12.994500 -0.242716 -4.980390 94.446700 -7.031490 -57.573600 -5.348130 -0.000001 -0.000004 -80.428000 -63.154000 -126.733000 -24.328900 0.000322 -0.000009 -0.001086 -30.317600 -0.000175 -22.291500 -0.000108 -0.000004 46.137200 5.332340 -0.854545 -2.192480 -6.469440 -0.000000 -171.666000 -13.128900 -1.877790 39.081100 -0.000007 -0.000012 -0.017743 0.144099 7.019080 40.985400 -0.000006 -0.000013 -7.691200 17.887600 -64.013600 11.754300 -0.000000 0.000003 -0.001683 0.192302 -8.775280 -2.192510 6.469440 -0.000001 178.748000 9.958650 -179.854000 -39.081100 -0.002282 -0.040193 0.005770 -0.036132 3.833660 -40.985400 0.000008 0.000006 -9.304130 11.125000 -62.425400 -11.754300 -0.000006 -0.000006 -0.010777 0.277022 -5.317090
